<svg width="85" height="65" viewBox="0 0 85 65" fill="none" xmlns="http://www.w3.org/2000/svg">
<g clip-path="url(#clip0_73_9)">
<path d="M85 65H0V0H85V65ZM10.8812 54.1907H74.1188V10.8093H10.8812V54.1907Z" fill="white"/>
<path d="M42.6179 45.4532C39.4261 45.4532 36.3794 44.2281 34.2394 42.0843L2.24878 9.89053L9.99254 2.306L41.965 34.4997C42.1645 34.7159 42.9987 34.7159 43.2345 34.5178L75.207 2.5402L82.9326 10.1608L50.9601 42.1203C48.8383 44.2461 45.8097 45.4532 42.6179 45.4532Z" fill="white"/>
<path d="M27.8471 29.159L3.34552 54.0418L11.1245 61.6007L35.6261 36.7179L27.8471 29.159Z" fill="white"/>
<path d="M57.5418 29.4925L49.7574 37.0449L73.5917 61.2878L81.3761 53.7354L57.5418 29.4925Z" fill="white"/>
</g>
<defs>
<clipPath id="clip0_73_9">
<rect width="85" height="65" fill="white"/>
</clipPath>
</defs>
</svg>
