<?xml version="1.0" encoding="utf-8"?>
<!-- Generator: Adobe Illustrator 25.0.0, SVG Export Plug-In . SVG Version: 6.00 Build 0)  -->
<svg version="1.1" id="Layer_1" xmlns="http://www.w3.org/2000/svg" xmlns:xlink="http://www.w3.org/1999/xlink" x="0px" y="0px"
	 viewBox="0 0 468.7 360.8" style="enable-background:new 0 0 468.7 360.8;" xml:space="preserve">
<style type="text/css">
	.st0{fill:#FF0099;}
	.st1{fill:#FF0099;stroke:#000000;stroke-width:60;stroke-miterlimit:10;}
</style>
<g>
	<path class="st0" d="M468.7,360.8H0V0h468.7V360.8z M60,300.8h348.7V60H60V300.8z"/>
	<path class="st1" d="M234.4,180.4"/>
	<path class="st0" d="M235,252.3c-17.6,0-34.4-6.8-46.2-18.7L12.4,54.9l42.7-42.1l176.3,178.7c1.1,1.2,5.7,1.2,7,0.1L414.7,14.1
		l42.6,42.3L281,233.8C269.3,245.6,252.6,252.3,235,252.3z"/>
	
		<rect x="10.8" y="221.9" transform="matrix(0.6993 -0.7149 0.7149 0.6993 -147.7559 152.5632)" class="st0" width="193.2" height="60"/>
	
		<rect x="331.5" y="157.9" transform="matrix(0.7154 -0.6987 0.6987 0.7154 -73.1471 324.3158)" class="st0" width="60" height="188.1"/>
</g>
</svg>
